# xmcd CD database file
#
# Track frame offsets:
#	150
#	13078
#	31680
#	44070
#	62818
#	81003
#	91818
#	108088
#	119980
#	136638
#	150675
#	164768
#
# Disc length: 2430 seconds
#
# Revision: 3
# Processed by: cddbd v1.4PL0 Copyright (c) Steve Scherf et al.
# Submitted via: CDex 1.40Release
#
DISCID=99097c0c
DTITLE=Cash, Johnny - The Many Sides of Johnny Cash - The Man in Black
DYEAR=1993
DGENRE=Country
TTITLE0=The Man In Black
TTITLE1=The Ballad Of Ira Hayes
TTITLE2=Folsom Prison Blues
TTITLE3=Sunday Morning Coming Down
TTITLE4=One Piece At A Time
TTITLE5=Daddy Sang Bass
TTITLE6=The Baron
TTITLE7=What Is Truth
TTITLE8=A Boy Named Sue
TTITLE9=Orange Blossom Special
TTITLE10=Ragged Old Flag
TTITLE11=Were You There
EXTD=YEAR: 1993 ID3G: 2
EXTT0=
EXTT1=
EXTT2=
EXTT3=
EXTT4=
EXTT5=
EXTT6=
EXTT7=
EXTT8=
EXTT9=
EXTT10=
EXTT11=
PLAYORDER=
